<mxfile host="www.draw.io" modified="2020-02-25T07:45:03.966Z" agent="Mozilla/5.0 (Windows NT 10.0; Win64; x64) AppleWebKit/537.36 (KHTML, like Gecko) Chrome/80.0.3987.122 Safari/537.36" etag="8CVkUF4e4XNlbx0Ojya0" version="12.7.4" type="github">
  <diagram id="Zy8DljmAPZDBCbQPvZ6K" name="Page-1">
    <mxGraphModel dx="898" dy="482" grid="1" gridSize="10" guides="1" tooltips="1" connect="1" arrows="1" fold="1" page="1" pageScale="1" pageWidth="827" pageHeight="1169" math="0" shadow="0">
      <root>
        <mxCell id="0" />
        <mxCell id="1" parent="0" />
        <mxCell id="H2UR8DmUVNf9pNAz3TWo-34" style="edgeStyle=orthogonalEdgeStyle;rounded=0;orthogonalLoop=1;jettySize=auto;html=1;exitX=1;exitY=0.5;exitDx=0;exitDy=0;entryX=0;entryY=0.5;entryDx=0;entryDy=0;" edge="1" parent="1" source="rvvtK5ZgNpoRpjgsdpnP-111" target="rvvtK5ZgNpoRpjgsdpnP-115">
          <mxGeometry relative="1" as="geometry" />
        </mxCell>
        <mxCell id="rvvtK5ZgNpoRpjgsdpnP-111" value="Klasifikasi" style="rounded=1;whiteSpace=wrap;html=1;arcSize=40;fontColor=#000000;fillColor=#ffffc0;strokeColor=#ff0000;" parent="1" vertex="1">
          <mxGeometry x="1135" y="785.5" width="120" height="40" as="geometry" />
        </mxCell>
        <mxCell id="rvvtK5ZgNpoRpjgsdpnP-115" value="" style="ellipse;html=1;shape=endState;fillColor=#000000;strokeColor=#ff0000;" parent="1" vertex="1">
          <mxGeometry x="1340" y="790.5" width="30" height="30" as="geometry" />
        </mxCell>
        <mxCell id="H2UR8DmUVNf9pNAz3TWo-1" style="edgeStyle=orthogonalEdgeStyle;rounded=0;orthogonalLoop=1;jettySize=auto;html=1;exitX=0.5;exitY=1;exitDx=0;exitDy=0;entryX=0.5;entryY=0;entryDx=0;entryDy=0;" edge="1" parent="1" source="H2UR8DmUVNf9pNAz3TWo-2" target="H2UR8DmUVNf9pNAz3TWo-9">
          <mxGeometry relative="1" as="geometry" />
        </mxCell>
        <mxCell id="H2UR8DmUVNf9pNAz3TWo-2" value="User melakukan input data" style="rounded=1;whiteSpace=wrap;html=1;arcSize=24;fillColor=#ffffc0;strokeColor=#ff0000;shadow=0;comic=0;labelBackgroundColor=none;fontFamily=Verdana;fontSize=12;fontColor=#000000;align=center;" vertex="1" parent="1">
          <mxGeometry x="211" y="685.5" width="120" height="60" as="geometry" />
        </mxCell>
        <mxCell id="H2UR8DmUVNf9pNAz3TWo-3" style="edgeStyle=elbowEdgeStyle;html=1;labelBackgroundColor=none;endArrow=open;endSize=8;strokeColor=#000000;fontFamily=Verdana;fontSize=12;align=left;" edge="1" parent="1" source="H2UR8DmUVNf9pNAz3TWo-4" target="H2UR8DmUVNf9pNAz3TWo-2">
          <mxGeometry relative="1" as="geometry" />
        </mxCell>
        <mxCell id="H2UR8DmUVNf9pNAz3TWo-4" value="" style="ellipse;html=1;shape=startState;fillColor=#000000;strokeColor=#ff0000;rounded=1;shadow=0;comic=0;labelBackgroundColor=none;fontFamily=Verdana;fontSize=12;fontColor=#000000;align=center;direction=south;" vertex="1" parent="1">
          <mxGeometry x="256" y="590.5" width="30" height="30" as="geometry" />
        </mxCell>
        <mxCell id="H2UR8DmUVNf9pNAz3TWo-5" style="edgeStyle=orthogonalEdgeStyle;rounded=0;orthogonalLoop=1;jettySize=auto;html=1;exitX=1;exitY=0.5;exitDx=0;exitDy=0;entryX=0;entryY=0.5;entryDx=0;entryDy=0;" edge="1" parent="1" source="H2UR8DmUVNf9pNAz3TWo-6" target="H2UR8DmUVNf9pNAz3TWo-21">
          <mxGeometry relative="1" as="geometry" />
        </mxCell>
        <mxCell id="H2UR8DmUVNf9pNAz3TWo-6" value="Auto-Correct" style="rounded=1;whiteSpace=wrap;html=1;arcSize=24;fillColor=#ffffc0;strokeColor=#ff0000;shadow=0;comic=0;labelBackgroundColor=none;fontFamily=Verdana;fontSize=12;fontColor=#000000;align=center;" vertex="1" parent="1">
          <mxGeometry x="211" y="915.5" width="120" height="40" as="geometry" />
        </mxCell>
        <mxCell id="H2UR8DmUVNf9pNAz3TWo-7" value="t" style="edgeStyle=orthogonalEdgeStyle;rounded=0;orthogonalLoop=1;jettySize=auto;html=1;exitX=1;exitY=0.5;exitDx=0;exitDy=0;strokeColor=#000000;" edge="1" parent="1" source="H2UR8DmUVNf9pNAz3TWo-9" target="H2UR8DmUVNf9pNAz3TWo-12">
          <mxGeometry relative="1" as="geometry" />
        </mxCell>
        <mxCell id="H2UR8DmUVNf9pNAz3TWo-8" value="Tidak terdapat salah ketik" style="text;html=1;align=center;verticalAlign=middle;resizable=0;points=[];labelBackgroundColor=#ffffff;spacing=2;spacingRight=0;spacingLeft=37;" vertex="1" connectable="0" parent="H2UR8DmUVNf9pNAz3TWo-7">
          <mxGeometry x="-0.3617" relative="1" as="geometry">
            <mxPoint as="offset" />
          </mxGeometry>
        </mxCell>
        <mxCell id="H2UR8DmUVNf9pNAz3TWo-9" value="" style="rhombus;whiteSpace=wrap;html=1;fillColor=#ffffc0;strokeColor=#ff0000;" vertex="1" parent="1">
          <mxGeometry x="231" y="785.5" width="80" height="40" as="geometry" />
        </mxCell>
        <mxCell id="H2UR8DmUVNf9pNAz3TWo-10" value="Terdapat salah ketik" style="edgeStyle=orthogonalEdgeStyle;html=1;align=center;verticalAlign=top;endArrow=open;endSize=8;strokeColor=#000000;entryX=0.5;entryY=0;entryDx=0;entryDy=0;spacing=25;" edge="1" parent="1" source="H2UR8DmUVNf9pNAz3TWo-9" target="H2UR8DmUVNf9pNAz3TWo-6">
          <mxGeometry x="-1" relative="1" as="geometry">
            <mxPoint x="271" y="905.5" as="targetPoint" />
          </mxGeometry>
        </mxCell>
        <mxCell id="H2UR8DmUVNf9pNAz3TWo-11" style="edgeStyle=orthogonalEdgeStyle;rounded=0;orthogonalLoop=1;jettySize=auto;html=1;exitX=1;exitY=0.5;exitDx=0;exitDy=0;endArrow=classic;endFill=1;strokeColor=#000000;" edge="1" parent="1" source="H2UR8DmUVNf9pNAz3TWo-12">
          <mxGeometry relative="1" as="geometry">
            <mxPoint x="730.9999999999991" y="805.5000000000002" as="targetPoint" />
          </mxGeometry>
        </mxCell>
        <mxCell id="H2UR8DmUVNf9pNAz3TWo-12" value="Simpan data sementara" style="rounded=1;whiteSpace=wrap;html=1;arcSize=40;fontColor=#000000;fillColor=#ffffc0;strokeColor=#ff0000;" vertex="1" parent="1">
          <mxGeometry x="521" y="785.5" width="120" height="40" as="geometry" />
        </mxCell>
        <mxCell id="H2UR8DmUVNf9pNAz3TWo-13" style="edgeStyle=orthogonalEdgeStyle;rounded=0;orthogonalLoop=1;jettySize=auto;html=1;exitX=0.5;exitY=0;exitDx=0;exitDy=0;entryX=1;entryY=0.5;entryDx=0;entryDy=0;" edge="1" parent="1" source="H2UR8DmUVNf9pNAz3TWo-16" target="H2UR8DmUVNf9pNAz3TWo-2">
          <mxGeometry relative="1" as="geometry" />
        </mxCell>
        <mxCell id="H2UR8DmUVNf9pNAz3TWo-14" value="Informasi kurang rinci" style="text;html=1;align=center;verticalAlign=middle;resizable=0;points=[];labelBackgroundColor=#ffffff;" vertex="1" connectable="0" parent="H2UR8DmUVNf9pNAz3TWo-13">
          <mxGeometry x="-0.253" y="1" relative="1" as="geometry">
            <mxPoint as="offset" />
          </mxGeometry>
        </mxCell>
        <mxCell id="H2UR8DmUVNf9pNAz3TWo-15" value="Informasi cukup rinci" style="edgeStyle=orthogonalEdgeStyle;rounded=0;orthogonalLoop=1;jettySize=auto;html=1;exitX=1;exitY=0.5;exitDx=0;exitDy=0;" edge="1" parent="1" source="H2UR8DmUVNf9pNAz3TWo-16" target="H2UR8DmUVNf9pNAz3TWo-18">
          <mxGeometry relative="1" as="geometry">
            <mxPoint x="901" y="805.5" as="targetPoint" />
          </mxGeometry>
        </mxCell>
        <mxCell id="H2UR8DmUVNf9pNAz3TWo-16" value="Feedback?" style="rhombus;whiteSpace=wrap;html=1;fillColor=#ffffc0;strokeColor=#ff0000;" vertex="1" parent="1">
          <mxGeometry x="731" y="785.5" width="80" height="40" as="geometry" />
        </mxCell>
        <mxCell id="H2UR8DmUVNf9pNAz3TWo-17" style="edgeStyle=orthogonalEdgeStyle;rounded=0;orthogonalLoop=1;jettySize=auto;html=1;exitX=1;exitY=0.5;exitDx=0;exitDy=0;" edge="1" parent="1" source="H2UR8DmUVNf9pNAz3TWo-18">
          <mxGeometry relative="1" as="geometry">
            <mxPoint x="1132.0000000115342" y="805.5000000000002" as="targetPoint" />
          </mxGeometry>
        </mxCell>
        <mxCell id="H2UR8DmUVNf9pNAz3TWo-18" value="Simpan data finalisasi" style="rounded=1;whiteSpace=wrap;html=1;arcSize=40;fontColor=#000000;fillColor=#ffffc0;strokeColor=#ff0000;" vertex="1" parent="1">
          <mxGeometry x="941" y="785.5" width="120" height="40" as="geometry" />
        </mxCell>
        <mxCell id="H2UR8DmUVNf9pNAz3TWo-20" style="edgeStyle=orthogonalEdgeStyle;rounded=0;orthogonalLoop=1;jettySize=auto;html=1;exitX=1;exitY=0.5;exitDx=0;exitDy=0;entryX=0.5;entryY=1;entryDx=0;entryDy=0;endArrow=classic;endFill=1;" edge="1" parent="1" source="H2UR8DmUVNf9pNAz3TWo-21" target="H2UR8DmUVNf9pNAz3TWo-12">
          <mxGeometry relative="1" as="geometry" />
        </mxCell>
        <mxCell id="H2UR8DmUVNf9pNAz3TWo-21" value="Mengkoreksi input user" style="rounded=1;whiteSpace=wrap;html=1;arcSize=40;fontColor=#000000;fillColor=#ffffc0;strokeColor=#ff0000;" vertex="1" parent="1">
          <mxGeometry x="411" y="915.5" width="120" height="40" as="geometry" />
        </mxCell>
      </root>
    </mxGraphModel>
  </diagram>
</mxfile>
